<svg width="18" height="18" viewBox="0 0 18 18" fill="none" xmlns="http://www.w3.org/2000/svg">
<path d="M11.807 7.88101C11.8542 5.51101 8.2542 5.83673 9.17993 1.71387C9.17993 1.71387 6.76277 2.6653 7.18706 5.58387C7.33277 6.58673 6.98135 7.33673 6.98135 7.33673C6.62564 7.40959 6.07277 6.70244 6.26563 5.60959C6.26563 5.60959 4.99706 6.55673 4.99706 7.77384C4.99706 8.99101 5.5842 10.281 5.5842 10.281C4.12277 9.96384 4.26849 7.99246 4.26849 7.99246C4.26849 7.99246 3.34277 9.23101 3.34277 11.5667C3.34277 13.3838 5.39135 16.2853 8.69565 16.2853C11.9999 16.2853 14.6528 13.7225 14.6528 11.4425C14.6528 10.4438 14.3142 9.15384 13.5814 8.45101C13.5814 8.45101 13.6799 10.4438 12.6942 10.3496C12.6942 10.3496 13.5085 7.74819 12.6557 6.55673C12.6557 6.55673 12.2442 7.84246 11.807 7.88101Z" fill="url(#paint0_linear_8833_864)"/>
<path d="M11.8112 6.09407C12.7711 4.32407 10.3926 4.07978 10.3883 2.99121C10.3883 2.99121 9.96828 4.11407 10.9712 4.88121C11.7897 5.50264 11.8112 6.09407 11.8112 6.09407Z" fill="url(#paint1_linear_8833_864)"/>
<path d="M6.76275 2.70898C6.39846 3.06898 6.89989 4.55613 5.75989 5.14327C5.75989 5.14327 5.37417 3.51041 6.76275 2.70898Z" fill="url(#paint2_linear_8833_864)"/>
<path opacity="0.5" d="M4.09277 8.58848C3.77563 9.13283 3.34277 10.1399 3.34277 11.5671C3.34277 13.1614 5.3742 16.0928 8.69565 16.0928C11.9399 16.0928 14.4599 13.5942 14.4599 11.4471C14.4599 10.6714 14.2457 9.68138 13.7699 8.97848C13.7357 9.41993 13.6285 10.0199 13.2985 10.3328C13.127 10.4957 12.9128 10.5685 12.677 10.5428L12.437 10.5214L12.5099 10.2942C12.5185 10.2728 13.1399 8.24138 12.6899 7.03708C12.5099 7.47851 12.2014 8.04848 11.8242 8.07848L11.6099 8.09565L11.6142 7.88138C11.6314 6.99422 11.087 6.52279 10.457 5.97851C9.55703 5.19851 8.54138 4.31565 8.9142 2.07422C8.28848 2.44279 7.07135 3.45851 7.37563 5.55422C7.52993 6.60422 7.16563 7.38422 7.15277 7.41851L7.10992 7.50848L7.01563 7.52565C6.83563 7.55993 6.64706 7.48708 6.47563 7.32422C6.2442 7.09708 6.0342 6.66851 6.02563 6.08565C5.6742 6.44565 5.18992 7.06708 5.18992 7.7742C5.18992 8.93565 5.75563 10.1871 5.75992 10.1999L5.91849 10.5514L5.54135 10.4699C4.55563 10.2557 4.18706 9.33848 4.09277 8.58848Z" fill="url(#paint3_linear_8833_864)"/>
<path d="M10.3885 2.99121C10.3028 3.63836 10.56 4.56836 10.9714 4.88121C11.3485 5.16836 11.7728 5.66121 11.8071 6.09407C12.45 4.83407 11.5456 4.36693 11.0271 4.18264C10.8085 4.10549 10.4056 3.65549 10.3885 2.99121Z" fill="url(#paint4_radial_8833_864)"/>
<path d="M8.41276 2.80762C6.98994 5.03619 8.83711 7.38905 7.88566 8.79902C6.93423 10.209 5.96994 8.9062 5.90565 8.0233C5.90565 8.0233 5.91423 10.8776 7.32423 12.0047C8.73421 13.1319 4.61136 12.8876 4.04565 11.5119C4.04565 11.5119 4.04565 16.0933 8.69566 16.0933C13.3457 16.0933 14.1214 11.829 14.1214 11.829C14.1214 11.829 12.4285 13.2733 11.3014 12.1462C11.3014 12.1462 12.1457 10.6676 12.3599 9.15047C12.3599 9.15047 11.7771 9.51902 10.8814 9.37765C10.8814 9.37765 11.3785 7.24762 10.3628 6.54905C9.05994 5.65333 7.95849 3.51905 8.41276 2.80762Z" fill="url(#paint5_linear_8833_864)"/>
<path d="M8.76867 5.42969C8.02295 6.41112 9.47585 8.9311 7.95012 9.92965C7.10582 10.4826 6.62154 9.81828 6.62154 9.81828C6.62154 9.81828 6.84869 10.8383 7.75722 11.7468C8.66585 12.6554 6.39011 13.8854 4.54297 12.2954C4.54297 12.2954 5.17725 16.114 9.47585 15.4711C14.2201 14.764 13.8687 11.2368 13.8687 11.2368C13.8687 11.2368 12.5829 13.2597 10.7529 12.2911C10.7529 12.2911 11.9058 10.684 11.9058 9.76255C11.9058 9.76255 11.1258 10.2254 10.2344 9.77965C10.2344 9.77965 10.6587 7.63683 10.1529 7.3154C8.94012 6.53969 8.76867 5.42969 8.76867 5.42969Z" fill="url(#paint6_linear_8833_864)"/>
<path opacity="0.5" d="M11.807 7.88101C11.8542 5.51101 8.2542 5.83673 9.17993 1.71387C9.17993 1.71387 6.76277 2.6653 7.18706 5.58387C7.33277 6.58673 6.98135 7.33673 6.98135 7.33673C6.62564 7.40959 6.07277 6.70244 6.26563 5.60959C6.26563 5.60959 4.99706 6.55673 4.99706 7.77384C4.99706 8.99101 5.5842 10.281 5.5842 10.281C4.12277 9.96384 4.26849 7.99246 4.26849 7.99246C4.26849 7.99246 3.34277 9.23101 3.34277 11.5667C3.34277 13.3838 5.39135 16.2853 8.69565 16.2853C11.9999 16.2853 14.6528 13.7225 14.6528 11.4425C14.6528 10.4438 14.3142 9.15384 13.5814 8.45101C13.5814 8.45101 13.6799 10.4438 12.6942 10.3496C12.6942 10.3496 13.5085 7.74819 12.6557 6.55673C12.6557 6.55673 12.2442 7.84246 11.807 7.88101Z" fill="url(#paint7_radial_8833_864)"/>
<path opacity="0.5" d="M11.807 7.88101C11.8542 5.51101 8.2542 5.83673 9.17993 1.71387C9.17993 1.71387 6.76277 2.6653 7.18706 5.58387C7.33277 6.58673 6.98135 7.33673 6.98135 7.33673C6.62564 7.40959 6.07277 6.70244 6.26563 5.60959C6.26563 5.60959 4.99706 6.55673 4.99706 7.77384C4.99706 8.99101 5.5842 10.281 5.5842 10.281C4.12277 9.96384 4.26849 7.99246 4.26849 7.99246C4.26849 7.99246 3.34277 9.23101 3.34277 11.5667C3.34277 13.3838 5.39135 16.2853 8.69565 16.2853C11.9999 16.2853 14.6528 13.7225 14.6528 11.4425C14.6528 10.4438 14.3142 9.15384 13.5814 8.45101C13.5814 8.45101 13.6799 10.4438 12.6942 10.3496C12.6942 10.3496 13.5085 7.74819 12.6557 6.55673C12.6557 6.55673 12.2442 7.84246 11.807 7.88101Z" fill="url(#paint8_radial_8833_864)"/>
<path d="M3.63428 10.5728C3.73285 12.9942 5.72571 15.8957 8.84145 15.8957C11.9571 15.8957 13.5128 12.6086 13.6115 10.6842C13.6115 10.6842 13.0286 11.8157 11.7128 12.0428C10.3971 12.2699 11.8028 9.77994 10.8815 8.30566C10.8815 8.30566 10.0671 10.8728 8.91 10.9671C7.75283 11.0614 6.77142 9.26994 6.77142 8.30566C6.77142 8.30566 6.06 10.0414 6.23571 11.4214C6.50571 13.5171 3.63428 10.5728 3.63428 10.5728Z" fill="url(#paint9_radial_8833_864)"/>
<path opacity="0.5" d="M11.807 7.88101C11.8542 5.51101 8.2542 5.83673 9.17993 1.71387C9.17993 1.71387 6.76277 2.6653 7.18706 5.58387C7.33277 6.58673 6.98135 7.33673 6.98135 7.33673C6.62564 7.40959 6.07277 6.70244 6.26563 5.60959C6.26563 5.60959 4.99706 6.55673 4.99706 7.77384C4.99706 8.99101 5.5842 10.281 5.5842 10.281C4.12277 9.96384 4.26849 7.99246 4.26849 7.99246C4.26849 7.99246 3.34277 9.23101 3.34277 11.5667C3.34277 13.3838 5.39135 16.2853 8.69565 16.2853C11.9999 16.2853 14.6528 13.7225 14.6528 11.4425C14.6528 10.4438 14.3142 9.15384 13.5814 8.45101C13.5814 8.45101 13.6799 10.4438 12.6942 10.3496C12.6942 10.3496 13.5085 7.74819 12.6557 6.55673C12.6557 6.55673 12.2442 7.84246 11.807 7.88101Z" fill="url(#paint10_radial_8833_864)"/>
<path opacity="0.5" d="M11.8112 6.09407C12.7711 4.32407 10.3926 4.07978 10.3883 2.99121C10.3883 2.99121 9.96828 4.11407 10.9712 4.88121C11.7897 5.50264 11.8112 6.09407 11.8112 6.09407Z" fill="url(#paint11_radial_8833_864)"/>
<path d="M6.76275 2.70898C6.40275 3.06898 6.63418 4.20469 5.75989 5.14327C5.75989 5.14327 5.37417 3.51041 6.76275 2.70898Z" fill="url(#paint12_radial_8833_864)"/>
<path opacity="0.5" d="M6.76275 2.70898C6.39846 3.06898 6.89989 4.55613 5.75989 5.14327C5.75989 5.14327 5.37417 3.51041 6.76275 2.70898Z" fill="url(#paint13_radial_8833_864)"/>
<path opacity="0.5" d="M11.807 7.88101C11.8542 5.51101 8.2542 5.83673 9.17993 1.71387C9.17993 1.71387 6.76277 2.6653 7.18706 5.58387C7.33277 6.58673 6.98135 7.33673 6.98135 7.33673C6.62564 7.40959 6.07277 6.70244 6.26563 5.60959C6.26563 5.60959 4.99706 6.55673 4.99706 7.77384C4.99706 8.99101 5.5842 10.281 5.5842 10.281C4.12277 9.96384 4.26849 7.99246 4.26849 7.99246C4.26849 7.99246 3.34277 9.23101 3.34277 11.5667C3.34277 13.3838 5.39135 16.2853 8.69565 16.2853C11.9999 16.2853 14.6528 13.7225 14.6528 11.4425C14.6528 10.4438 14.3142 9.15384 13.5814 8.45101C13.5814 8.45101 13.6799 10.4438 12.6942 10.3496C12.6942 10.3496 13.5085 7.74819 12.6557 6.55673C12.6557 6.55673 12.2442 7.84246 11.807 7.88101Z" fill="url(#paint14_radial_8833_864)"/>
<path opacity="0.25" d="M11.807 7.88101C11.8542 5.51101 8.2542 5.83673 9.17993 1.71387C9.17993 1.71387 6.76277 2.6653 7.18706 5.58387C7.33277 6.58673 6.98135 7.33673 6.98135 7.33673C6.62564 7.40959 6.07277 6.70244 6.26563 5.60959C6.26563 5.60959 4.99706 6.55673 4.99706 7.77384C4.99706 8.99101 5.5842 10.281 5.5842 10.281C4.12277 9.96384 4.26849 7.99246 4.26849 7.99246C4.26849 7.99246 3.34277 9.23101 3.34277 11.5667C3.34277 13.3838 5.39135 16.2853 8.69565 16.2853C11.9999 16.2853 14.6528 13.7225 14.6528 11.4425C14.6528 10.4438 14.3142 9.15384 13.5814 8.45101C13.5814 8.45101 13.6799 10.4438 12.6942 10.3496C12.6942 10.3496 13.5085 7.74819 12.6557 6.55673C12.6557 6.55673 12.2442 7.84246 11.807 7.88101Z" fill="url(#paint15_radial_8833_864)"/>
<path opacity="0.25" d="M11.807 7.88101C11.8542 5.51101 8.2542 5.83673 9.17993 1.71387C9.17993 1.71387 6.76277 2.6653 7.18706 5.58387C7.33277 6.58673 6.98135 7.33673 6.98135 7.33673C6.62564 7.40959 6.07277 6.70244 6.26563 5.60959C6.26563 5.60959 4.99706 6.55673 4.99706 7.77384C4.99706 8.99101 5.5842 10.281 5.5842 10.281C4.12277 9.96384 4.26849 7.99246 4.26849 7.99246C4.26849 7.99246 3.34277 9.23101 3.34277 11.5667C3.34277 13.3838 5.39135 16.2853 8.69565 16.2853C11.9999 16.2853 14.6528 13.7225 14.6528 11.4425C14.6528 10.4438 14.3142 9.15384 13.5814 8.45101C13.5814 8.45101 13.6799 10.4438 12.6942 10.3496C12.6942 10.3496 13.5085 7.74819 12.6557 6.55673C12.6557 6.55673 12.2442 7.84246 11.807 7.88101Z" fill="url(#paint16_radial_8833_864)"/>
<path opacity="0.25" d="M11.807 7.88101C11.8542 5.51101 8.2542 5.83673 9.17993 1.71387C9.17993 1.71387 6.76277 2.6653 7.18706 5.58387C7.33277 6.58673 6.98135 7.33673 6.98135 7.33673C6.62564 7.40959 6.07277 6.70244 6.26563 5.60959C6.26563 5.60959 4.99706 6.55673 4.99706 7.77384C4.99706 8.99101 5.5842 10.281 5.5842 10.281C4.12277 9.96384 4.26849 7.99246 4.26849 7.99246C4.26849 7.99246 3.34277 9.23101 3.34277 11.5667C3.34277 13.3838 5.39135 16.2853 8.69565 16.2853C11.9999 16.2853 14.6528 13.7225 14.6528 11.4425C14.6528 10.4438 14.3142 9.15384 13.5814 8.45101C13.5814 8.45101 13.6799 10.4438 12.6942 10.3496C12.6942 10.3496 13.5085 7.74819 12.6557 6.55673C12.6557 6.55673 12.2442 7.84246 11.807 7.88101Z" fill="url(#paint17_radial_8833_864)"/>
<defs>
<linearGradient id="paint0_linear_8833_864" x1="9.72255" y1="16.688" x2="7.09531" y2="-2.3513" gradientUnits="userSpaceOnUse">
<stop stop-color="#FF0000"/>
<stop offset="0.2317" stop-color="#FF1500"/>
<stop offset="0.7367" stop-color="#FF3D00"/>
<stop offset="0.9987" stop-color="#FF4C00"/>
</linearGradient>
<linearGradient id="paint1_linear_8833_864" x1="12.8009" y1="16.2635" x2="10.1736" y2="-2.77591" gradientUnits="userSpaceOnUse">
<stop stop-color="#FF0000"/>
<stop offset="0.2317" stop-color="#FF1500"/>
<stop offset="0.7367" stop-color="#FF3D00"/>
<stop offset="0.9987" stop-color="#FF4C00"/>
</linearGradient>
<linearGradient id="paint2_linear_8833_864" x1="8.05102" y1="16.9195" x2="5.42377" y2="-2.11983" gradientUnits="userSpaceOnUse">
<stop stop-color="#FF0000"/>
<stop offset="0.2317" stop-color="#FF1500"/>
<stop offset="0.7367" stop-color="#FF3D00"/>
<stop offset="0.9987" stop-color="#FF4C00"/>
</linearGradient>
<linearGradient id="paint3_linear_8833_864" x1="9.65175" y1="13.4453" x2="3.91074" y2="-2.95065" gradientUnits="userSpaceOnUse">
<stop stop-color="#FF8000"/>
<stop offset="0.6388" stop-color="#FF5B00"/>
<stop offset="0.9987" stop-color="#FF4C00"/>
</linearGradient>
<radialGradient id="paint4_radial_8833_864" cx="0" cy="0" r="1" gradientUnits="userSpaceOnUse" gradientTransform="translate(12.1105 0.101534) scale(7.65045 7.65045)">
<stop offset="0.00134333" stop-color="#FFED1C" stop-opacity="0.6"/>
<stop offset="0.9477" stop-color="#FFED1C" stop-opacity="0.0264782"/>
<stop offset="0.9914" stop-color="#FFED1C" stop-opacity="0"/>
</radialGradient>
<linearGradient id="paint5_linear_8833_864" x1="7.42245" y1="2.50466" x2="9.49831" y2="14.1488" gradientUnits="userSpaceOnUse">
<stop stop-color="#FF8000"/>
<stop offset="0.022669" stop-color="#FE7F02" stop-opacity="0.9773"/>
<stop offset="0.6663" stop-color="#ED582A" stop-opacity="0.3337"/>
<stop offset="1" stop-color="#E74939" stop-opacity="0"/>
</linearGradient>
<linearGradient id="paint6_linear_8833_864" x1="9.03462" y1="15.0866" x2="9.48327" y2="6.91062" gradientUnits="userSpaceOnUse">
<stop stop-color="#FFBC47"/>
<stop offset="0.1869" stop-color="#FFB137" stop-opacity="0.8131"/>
<stop offset="0.7223" stop-color="#FF940F" stop-opacity="0.2777"/>
<stop offset="1" stop-color="#FF8900" stop-opacity="0"/>
</linearGradient>
<radialGradient id="paint7_radial_8833_864" cx="0" cy="0" r="1" gradientUnits="userSpaceOnUse" gradientTransform="translate(8.9229 12.8801) scale(5.91805 4.80427)">
<stop offset="0.00134333" stop-color="#FFBC47"/>
<stop offset="0.2941" stop-color="#FFBF4B" stop-opacity="0.7068"/>
<stop offset="0.5624" stop-color="#FEC656" stop-opacity="0.4382"/>
<stop offset="0.8201" stop-color="#FCD368" stop-opacity="0.1801"/>
<stop offset="1" stop-color="#FBE07A" stop-opacity="0"/>
</radialGradient>
<radialGradient id="paint8_radial_8833_864" cx="0" cy="0" r="1" gradientUnits="userSpaceOnUse" gradientTransform="translate(8.9229 12.6368) scale(5.73569 4.65622)">
<stop offset="0.00134333" stop-color="white"/>
<stop offset="1" stop-color="white" stop-opacity="0"/>
</radialGradient>
<radialGradient id="paint9_radial_8833_864" cx="0" cy="0" r="1" gradientUnits="userSpaceOnUse" gradientTransform="translate(6.40796 13.6951) scale(7.04588 8.2035)">
<stop offset="0.00134333" stop-color="#FFED1C" stop-opacity="0.6"/>
<stop offset="0.9477" stop-color="#FFED1C" stop-opacity="0.0264782"/>
<stop offset="0.9914" stop-color="#FFED1C" stop-opacity="0"/>
</radialGradient>
<radialGradient id="paint10_radial_8833_864" cx="0" cy="0" r="1" gradientUnits="userSpaceOnUse" gradientTransform="translate(8.9232 12.6362) rotate(92.8876) scale(2.22684 1.80765)">
<stop offset="0.00134333" stop-color="white"/>
<stop offset="1" stop-color="white" stop-opacity="0"/>
</radialGradient>
<radialGradient id="paint11_radial_8833_864" cx="0" cy="0" r="1" gradientUnits="userSpaceOnUse" gradientTransform="translate(10.1539 2.98715) scale(2.52763)">
<stop offset="0.00134333" stop-color="#FFED1C"/>
<stop offset="0.1997" stop-color="#FFEE2B" stop-opacity="0.8013"/>
<stop offset="0.5839" stop-color="#FFF254" stop-opacity="0.4167"/>
<stop offset="1" stop-color="#FFF686" stop-opacity="0"/>
</radialGradient>
<radialGradient id="paint12_radial_8833_864" cx="0" cy="0" r="1" gradientUnits="userSpaceOnUse" gradientTransform="translate(5.98616 4.20406) rotate(-56.4116) scale(2.04744 0.464981)">
<stop offset="0.00134333" stop-color="#FFED1C" stop-opacity="0.6"/>
<stop offset="0.9477" stop-color="#FFED1C" stop-opacity="0.0264782"/>
<stop offset="0.9914" stop-color="#FFED1C" stop-opacity="0"/>
</radialGradient>
<radialGradient id="paint13_radial_8833_864" cx="0" cy="0" r="1" gradientUnits="userSpaceOnUse" gradientTransform="translate(6.39163 2.59853) rotate(95.0573) scale(1.83973 0.740251)">
<stop offset="0.00134333" stop-color="#FFED1C"/>
<stop offset="0.1997" stop-color="#FFEE2B" stop-opacity="0.8013"/>
<stop offset="0.5839" stop-color="#FFF254" stop-opacity="0.4167"/>
<stop offset="1" stop-color="#FFF686" stop-opacity="0"/>
</radialGradient>
<radialGradient id="paint14_radial_8833_864" cx="0" cy="0" r="1" gradientUnits="userSpaceOnUse" gradientTransform="translate(9.5925 2.66259) scale(7.887)">
<stop offset="0.00134333" stop-color="#FF4C00"/>
<stop offset="0.135" stop-color="#FF5B0C" stop-opacity="0.8661"/>
<stop offset="0.3941" stop-color="#FF842C" stop-opacity="0.6067"/>
<stop offset="0.7491" stop-color="#FFC45F" stop-opacity="0.2512"/>
<stop offset="1" stop-color="#FFF686" stop-opacity="0"/>
</radialGradient>
<radialGradient id="paint15_radial_8833_864" cx="0" cy="0" r="1" gradientUnits="userSpaceOnUse" gradientTransform="translate(13.1797 9.05229) scale(4.18629)">
<stop offset="0.00134333" stop-color="#FFED1C"/>
<stop offset="0.1997" stop-color="#FFEE2B" stop-opacity="0.8013"/>
<stop offset="0.5839" stop-color="#FFF254" stop-opacity="0.4167"/>
<stop offset="1" stop-color="#FFF686" stop-opacity="0"/>
</radialGradient>
<radialGradient id="paint16_radial_8833_864" cx="0" cy="0" r="1" gradientUnits="userSpaceOnUse" gradientTransform="translate(4.61025 10.5443) scale(4.46205)">
<stop offset="0.00134333" stop-color="#FFED1C"/>
<stop offset="0.1997" stop-color="#FFEE2B" stop-opacity="0.8013"/>
<stop offset="0.5839" stop-color="#FFF254" stop-opacity="0.4167"/>
<stop offset="1" stop-color="#FFF686" stop-opacity="0"/>
</radialGradient>
<radialGradient id="paint17_radial_8833_864" cx="0" cy="0" r="1" gradientUnits="userSpaceOnUse" gradientTransform="translate(8.8563 9.64246) rotate(86.1102) scale(7.64317 4.64626)">
<stop stop-color="#FF4C00" stop-opacity="0"/>
<stop offset="0.9874" stop-color="#FF4C00" stop-opacity="0.9888"/>
<stop offset="0.9987" stop-color="#FF4C00"/>
</radialGradient>
</defs>
</svg>
