<svg width="46" height="46" viewBox="0 0 46 46" fill="none" xmlns="http://www.w3.org/2000/svg">
<rect x="1" y="1" width="44" height="44" rx="22" fill="white" fill-opacity="0.1"/>
<rect x="0.5" y="0.5" width="45" height="45" rx="22.5" stroke="white" stroke-opacity="0.3"/>
<path d="M23.003 31C24.0962 31 24.9709 30.125 24.9709 29H21.0038C21.0038 30.125 21.8784 31 23.003 31ZM29.7189 26.3438C29.1254 25.6875 27.9696 24.7188 27.9696 21.5C27.9696 19.0938 26.2828 17.1562 23.9713 16.6562V16C23.9713 15.4688 23.534 15 23.003 15C22.4407 15 22.0034 15.4688 22.0034 16V16.6562C19.6919 17.1562 18.0051 19.0938 18.0051 21.5C18.0051 24.7188 16.8493 25.6875 16.2558 26.3438C16.0684 26.5312 15.9747 26.7812 16.0059 27C16.0059 27.5312 16.3808 28 17.0055 28H28.9692C29.5939 28 29.9688 27.5312 30 27C30 26.7812 29.9063 26.5312 29.7189 26.3438Z" fill="white"/>
</svg>
