<svg width="32" height="32" viewBox="0 0 32 32" fill="none" xmlns="http://www.w3.org/2000/svg">
<path fill-rule="evenodd" clip-rule="evenodd" d="M21.1527 25.0324C20.9538 26.0949 20.7497 26.8183 20.5691 27.5579C20.4656 27.9812 20.2257 28.2451 19.9445 28.2451H19.5241C19.314 28.2451 19.1332 28.1051 19.0012 27.8403C18.8693 27.5755 18.8231 27.2597 18.8677 26.9273C18.9453 26.3492 19.0657 25.7975 19.2072 25.0013C18.9862 24.9954 18.7652 24.9887 18.5442 24.9812C18.4023 24.4277 18.4326 24.1646 18.635 23.2792C18.9255 22.0091 19.4521 20.9282 19.7495 19.7437C20.0348 18.6081 20.1261 17.2343 20.0236 15.6222L18.733 16.3462L16.0117 14.1309L16.0565 24.8087C16.0551 24.924 16.0084 25.0342 15.9265 25.1153C15.8446 25.1965 15.7341 25.2423 15.6188 25.2427C15.5034 25.2432 15.3926 25.1983 15.31 25.1178C15.2275 25.0372 15.1799 24.9275 15.1776 24.8122L15.1337 14.3762C14.4459 15.2643 13.55 16.0164 12.2491 16.8676C10.9543 16.2387 10.9421 16.2326 9.81021 15.3268C9.59811 15.9375 9.08368 16.83 8.70826 18.2338C10.3662 19.1218 11.1049 19.9715 12.091 20.6503C12.078 21.148 12.2123 22.9072 12.3429 25.7214C12.6781 26.6599 13.0533 26.851 12.6261 27.631C12.6261 27.631 12.1389 27.402 11.2226 27.0033C11.2226 27.0033 10.684 26.0822 10.1804 25.2987C10.4073 24.3243 10.3682 23.1787 9.98045 22.0233C9.11536 21.6691 7.37418 20.9928 6.61642 20.4272C6.48208 21.3124 7.02621 23.652 7.61034 26.2626C7.77354 26.6217 8.17117 28.3277 7.99933 28.5645C7.06019 29.859 6.50058 29.2181 5.95024 28.1296C5.8033 27.8391 5.83043 27.2893 5.82666 26.8921C5.40445 26.1168 5.14966 25.2295 4.74653 24.326C3.67171 22.0041 3.81194 18.5225 4.97066 13.262C3.43133 11.9328 2.39222 10.8819 1.924 9.72081C1.6936 9.05688 2.38608 7.26622 4.00144 4.34884C4.54422 3.50552 5.30314 2.96344 6.2783 2.7226C6.38018 2.7076 6.48417 2.71757 6.58135 2.75165C6.67852 2.78573 6.76596 2.84291 6.83614 2.91825C6.90633 2.9936 6.95716 3.08487 6.98427 3.18422C7.01138 3.28356 7.01396 3.388 6.99178 3.48856C6.77942 4.14667 6.22685 4.82168 5.33405 5.51358C4.91828 6.69583 4.50209 7.87793 4.08547 9.05988C5.23107 10.047 6.07741 10.792 6.62454 11.2947C6.65437 11.3001 6.68451 11.3059 6.71472 11.3119C7.3295 12.4258 8.6353 12.9467 9.84368 12.5825C10.6229 13.0177 11.4699 13.5572 12.3847 14.201L14.2943 12.5958C13.746 11.7558 14.4192 10.9956 15.119 10.9078C15.117 10.4342 15.1163 10.101 15.1422 9.62788C15.1832 8.87992 15.2221 8.16913 14.7618 7.82686C14.042 7.29176 13.1094 8.03115 13.2916 9.00209C13.3125 9.11661 13.2872 9.23476 13.2213 9.33068C13.1553 9.42661 13.054 9.4925 12.9396 9.51392C12.8252 9.53534 12.7069 9.51056 12.6107 9.44499C12.5145 9.37942 12.4482 9.27841 12.4263 9.16408C12.1998 7.95627 13.0423 6.76734 14.238 6.76734C14.6039 6.76734 14.9694 6.88497 15.2859 7.12017C16.3359 7.90084 15.9911 9.2227 15.9958 10.3717L15.9996 11.291C16.1904 11.5668 16.2754 11.9586 16.2239 12.3721L18.56 13.8069L19.7141 12.2855L19.7189 12.2783C20.8609 12.9002 22.2873 12.5372 22.9999 11.4534L25.3169 13.1459C25.9871 12.8305 27.468 12.0713 28.4393 11.4661C29.3838 10.8775 30.4388 11.4799 30.0272 12.4143C29.8789 12.751 29.5386 12.9578 29.1832 12.8627L25.7417 15.6117L23.7062 14.6045C24.555 15.7587 25.0254 17.028 25.1176 18.4123C25.2542 20.4642 24.2258 21.9771 24.7133 24.9812C24.4133 24.9913 24.1132 25.0001 23.8132 25.0073C23.9964 26.0299 24.1474 27.0332 24.2659 28.0172C24.2676 28.5565 24.0393 29.0376 23.698 29.2144C23.3566 29.3913 22.9777 29.2248 22.755 28.8001L21.7983 25.0335C21.5833 25.0338 21.368 25.0335 21.1527 25.0324ZM7.03139 8.07185L7.82986 8.6668L7.20656 9.65272C6.90224 10.4388 7.20726 11.351 7.96003 11.7856C8.7128 12.2202 9.65533 12.0283 10.1839 11.3717L10.6439 10.7636L11.4481 11.3629C11.4866 11.3914 11.5303 11.4121 11.5768 11.4238C11.6233 11.4354 11.6716 11.4378 11.719 11.4308C11.7664 11.4238 11.812 11.4075 11.8531 11.3829C11.8942 11.3582 11.9301 11.3258 11.9586 11.2873C11.9872 11.2488 12.0079 11.2051 12.0195 11.1586C12.0312 11.1121 12.0336 11.0638 12.0266 11.0164C12.0195 10.969 12.0033 10.9234 11.9786 10.8823C11.954 10.8412 11.9215 10.8053 11.883 10.7767L11.1323 10.2173C11.6293 9.33617 11.3251 8.21713 10.4469 7.71012C9.69642 7.27684 8.76842 7.43 8.19318 8.02731L7.46627 7.48568C7.38854 7.42803 7.29109 7.40361 7.19536 7.41778C7.09963 7.43196 7.01344 7.48356 6.95574 7.56126C6.89809 7.63901 6.87366 7.73647 6.88785 7.83222C6.90204 7.92797 6.95367 8.01416 7.03139 8.07185ZM20.9117 8.34571C19.952 8.34571 19.174 9.12369 19.174 10.0834C19.174 11.0431 19.952 11.8211 20.9117 11.8211C21.8715 11.8211 22.6494 11.0431 22.6494 10.0834C22.6494 9.12369 21.8715 8.34571 20.9117 8.34571ZM22.1688 7.28369C21.7066 7.01694 21.0552 7.14904 20.8434 7.63889L20.7063 7.95576C21.5943 7.80254 22.2626 8.18001 22.6649 8.76587C22.8821 8.31416 22.8212 7.66027 22.3803 7.4058L22.1688 7.28369Z" fill="url(#paint0_linear_8673_10769)"/>
<defs>
<linearGradient id="paint0_linear_8673_10769" x1="-1.71947" y1="0.191816" x2="31.733" y2="36.2391" gradientUnits="userSpaceOnUse">
<stop stop-color="#F708F7"/>
<stop offset="0.483045" stop-color="#C708F7"/>
<stop offset="1" stop-color="#F76B0B"/>
</linearGradient>
</defs>
</svg>
